<?xml version="1.0" encoding="utf-8"?>
<!-- Generator: Adobe Illustrator 21.0.0, SVG Export Plug-In . SVG Version: 6.00 Build 0)  -->
<svg version="1.1" id="Capa_1" xmlns="http://www.w3.org/2000/svg" xmlns:xlink="http://www.w3.org/1999/xlink" x="0px" y="0px"
	 viewBox="0 0 612 612" style="enable-background:new 0 0 612 612;" xml:space="preserve">
<style type="text/css">
	.st0{display:none;}
	.st1{fill:#262222;}
	.st2{fill:#FFFFFF;}
</style>
<g>
	<g>
		<path class="st0" d="M230.7,181.2c-2.4,2.6-3.9,4.3-5.1,5.5C227.8,184.4,230.7,181.2,230.7,181.2z"/>
		<circle class="st1" cx="306" cy="306" r="289"/>
		<path class="st1" d="M612,306C612,137,475,0,306,0C137,0,0,137,0,306c0,169,137,306,306,306C475,612,612,475,612,306z M27.8,306
			C27.8,152.4,152.4,27.8,306,27.8S584.2,152.4,584.2,306S459.6,584.2,306,584.2S27.8,459.6,27.8,306z"/>
		<path class="st2" d="M337,200.9c8,9.8,11.9,21.3,11.9,34.6c0,9.5-2.7,18.7-8.2,27.5c-3,5-6.9,9.8-11.8,14.5l-16.3,16.1
			c-15.6,15.4-25.7,29-30.4,40.9c-4.6,11.9-6.9,27.5-6.9,47h36.3c0-17.1,1.9-30,5.8-38.8c3.9-8.8,12.3-19.4,25.4-32.1
			c17.9-17.4,29.8-30.6,35.7-39.5s8.9-20.6,8.9-35.1c0-23.8-8-43.3-24.1-58.6c-16.1-15.3-37.5-22.9-64.3-22.9
			c-28.9,0-51.7,8.9-68.3,26.8s-24.9,41.4-24.9,70.8h36.3c0.7-17.7,3.5-31.2,8.3-40.6c8.7-16.8,24.4-25.3,47.1-25.3
			C315.9,186.2,329,191.1,337,200.9z"/>
		<rect x="274.5" y="415.2" class="st2" width="40.6" height="42.4"/>
	</g>
</g>
</svg>
