<?xml version="1.0" encoding="utf-8"?>
<!-- Generator: Adobe Illustrator 21.0.0, SVG Export Plug-In . SVG Version: 6.00 Build 0)  -->
<svg version="1.1" id="Capa_1" xmlns="http://www.w3.org/2000/svg" xmlns:xlink="http://www.w3.org/1999/xlink" x="0px" y="0px"
	 viewBox="0 0 27.4 27.4" style="enable-background:new 0 0 27.4 27.4;" xml:space="preserve">
<style type="text/css">
	.st0{fill:#262222;}
</style>
<g>
	<path class="st0" d="M19.5,0H7.9C6.8,0,6,0.9,6,2v23.4c0,1.1,0.9,2,2,2h11.5c1.1,0,2-0.9,2-2V2C21.5,0.9,20.6,0,19.5,0z M10.9,1.2
		h5.7c0.1,0,0.3,0.2,0.3,0.5s-0.1,0.5-0.3,0.5h-5.7c-0.1,0-0.3-0.2-0.3-0.5C10.6,1.4,10.7,1.2,10.9,1.2z M13.7,25.5
		c-0.7,0-1.3-0.6-1.3-1.3s0.6-1.3,1.3-1.3c0.7,0,1.3,0.6,1.3,1.3S14.4,25.5,13.7,25.5z M20,21.1H7.4V3.4H20C20,3.4,20,21.1,20,21.1z
		"/>
</g>
</svg>
