<?xml version="1.0" encoding="utf-8"?>
<!-- Generator: Adobe Illustrator 21.0.0, SVG Export Plug-In . SVG Version: 6.00 Build 0)  -->
<svg version="1.1" id="Capa_1" xmlns="http://www.w3.org/2000/svg" xmlns:xlink="http://www.w3.org/1999/xlink" x="0px" y="0px"
	 viewBox="0 0 44.6 44.6" style="enable-background:new 0 0 44.6 44.6;" xml:space="preserve">
<style type="text/css">
	.st0{fill:#C69C6D;}
</style>
<g>
	<g>
		<path class="st0" d="M42.3,20.9L22.6,1.2C21.8,0.4,20.8,0,19.8,0s-2,0.4-2.8,1.2L6.2,12c-1.6,1.6-1.6,4.1,0,5.7L8,19.5h4.1
			l-3.9-3.9C8,15.3,7.9,15,7.9,14.8s0-0.5,0.3-0.8l1.4-1.4l6.8,6.8h6.5l-10-10.1L19,3.3c0.3-0.3,0.6-0.3,0.7-0.3s0.5,0,0.7,0.3
			L40.3,23c0.3,0.3,0.3,0.6,0.3,0.7c0,0.2-0.1,0.5-0.3,0.7l-1.1,1.1v4.1l3.2-3.2C43.8,25,43.9,22.4,42.3,20.9z"/>
		<path class="st0" d="M33.1,21.3H5.2c-2.2,0-4.1,1.8-4.1,4v10.5H37V25.3C37,23.1,35.3,21.3,33.1,21.3z M10.8,32.3
			c-0.8,0-1.5-0.3-2-0.8c-0.5,0.5-1.2,0.8-2,0.8c-1.6,0-2.9-1.3-2.9-2.9c0-1.6,1.3-2.9,2.9-2.9c0.8,0,1.5,0.3,2,0.8
			c0.5-0.5,1.2-0.8,2-0.8c1.6,0,2.9,1.3,2.9,2.9C13.7,31,12.4,32.3,10.8,32.3z"/>
		<path class="st0" d="M1.1,40.6c0,2.2,1.9,4,4.1,4h27.9c2.2,0,3.9-1.8,3.9-4v-0.2H1.1V40.6z"/>
	</g>
</g>
</svg>
